<svg width="47" height="46" viewBox="0 0 47 46" fill="none" xmlns="http://www.w3.org/2000/svg">
<path d="M40.6743 8.28725V37.7137C40.6743 38.3865 40.4071 39.0318 39.9313 39.5075C39.4556 39.9832 38.8103 40.2505 38.1376 40.2505H8.71108C8.03829 40.2505 7.39305 39.9832 6.91732 39.5075C6.44158 39.0318 6.17432 38.3865 6.17432 37.7137V8.28725C6.17432 7.61446 6.44158 6.96923 6.91732 6.49349C7.39305 6.01775 8.03829 5.75049 8.71108 5.75049H38.1376C38.8103 5.75049 39.4556 6.01775 39.9313 6.49349C40.4071 6.96923 40.6743 7.61446 40.6743 8.28725ZM16.3214 18.9417H11.2478V35.177H16.3214V18.9417ZM16.778 13.3608C16.7807 12.977 16.7077 12.5965 16.5633 12.2409C16.4189 11.8853 16.2059 11.5617 15.9364 11.2884C15.6669 11.0152 15.3463 10.7977 14.9927 10.6483C14.6392 10.499 14.2597 10.4208 13.8759 10.4181H13.7846C13.0042 10.4181 12.2557 10.7282 11.7038 11.28C11.152 11.8319 10.842 12.5803 10.842 13.3608C10.842 14.1412 11.152 14.8897 11.7038 15.4415C12.2557 15.9934 13.0042 16.3034 13.7846 16.3034C14.1684 16.3129 14.5503 16.2466 14.9085 16.1084C15.2667 15.9702 15.5941 15.7628 15.8721 15.498C16.1501 15.2332 16.3731 14.9162 16.5286 14.5652C16.684 14.2141 16.7688 13.8359 16.778 13.4521V13.3608ZM35.6008 25.314C35.6008 20.4333 32.4958 18.5358 29.4111 18.5358C28.4011 18.4852 27.3955 18.7003 26.4946 19.1597C25.5937 19.619 24.8289 20.3066 24.2767 21.1537H24.1346V18.9417H19.3655V35.177H24.439V26.5418C24.3657 25.6574 24.6443 24.7798 25.2142 24.0996C25.7842 23.4195 26.5996 22.9917 27.4831 22.9092H27.6759C29.2893 22.9092 30.4867 23.9239 30.4867 26.4809V35.177H35.5602L35.6008 25.314Z" fill="white"/>
</svg>
