<svg width="47" height="46" viewBox="0 0 47 46" fill="none" xmlns="http://www.w3.org/2000/svg">
<path fill-rule="evenodd" clip-rule="evenodd" d="M38.9085 10.3788C40.557 10.8217 41.861 12.1257 42.3039 13.7742C43.1159 16.7759 43.1405 23.0008 43.1405 23.0008C43.1405 23.0008 43.1405 29.2502 42.3285 32.2274C41.8857 33.8758 40.5816 35.1799 38.9331 35.6227C35.956 36.4347 23.9738 36.4347 23.9738 36.4347C23.9738 36.4347 11.9916 36.4347 9.01445 35.6227C7.36596 35.1799 6.06194 33.8758 5.61907 32.2274C4.80713 29.2257 4.80713 23.0008 4.80713 23.0008C4.80713 23.0008 4.80713 16.7759 5.59446 13.7988C6.03734 12.1503 7.34136 10.8463 8.98984 10.4034C11.967 9.59149 23.9492 9.56689 23.9492 9.56689C23.9492 9.56689 35.9314 9.56689 38.9085 10.3788ZM30.0756 23.0008L20.1355 28.7582V17.2434L30.0756 23.0008Z" fill="white"/>
</svg>
