<svg width="31" height="31" viewBox="0 0 31 31" fill="none" xmlns="http://www.w3.org/2000/svg">
<path d="M16.3894 25.1108C16.2583 24.9802 16.1542 24.825 16.0833 24.654C16.0123 24.4831 15.9758 24.2998 15.9758 24.1147C15.9758 23.9297 16.0123 23.7464 16.0833 23.5755C16.1542 23.4045 16.2583 23.2493 16.3894 23.1187L22.4234 17.0847L5.19679 17.0847C4.82383 17.0847 4.46615 16.9365 4.20243 16.6728C3.9387 16.4091 3.79054 16.0514 3.79054 15.6784C3.79054 15.3055 3.9387 14.9478 4.20243 14.684C4.46615 14.4203 4.82383 14.2722 5.19679 14.2722L22.4234 14.2722L16.3894 8.23584C16.1252 7.97166 15.9768 7.61335 15.9768 7.23974C15.9768 6.86614 16.1252 6.50783 16.3894 6.24365C16.6536 5.97947 17.0119 5.83105 17.3855 5.83105C17.7591 5.83105 18.1174 5.97947 18.3816 6.24365L26.8191 14.6812C26.9502 14.8118 27.0542 14.967 27.1252 15.138C27.1961 15.3089 27.2327 15.4922 27.2327 15.6772C27.2327 15.8623 27.1961 16.0456 27.1252 16.2165C27.0542 16.3875 26.9502 16.5427 26.8191 16.6733L18.3816 25.1108C18.2509 25.2419 18.0957 25.346 17.9247 25.4169C17.7538 25.4879 17.5705 25.5244 17.3855 25.5244C17.2004 25.5244 17.0171 25.4879 16.8462 25.4169C16.6753 25.346 16.52 25.2419 16.3894 25.1108Z" fill="white"/>
</svg>
