<svg width="79" height="81" viewBox="0 0 79 81" fill="none" xmlns="http://www.w3.org/2000/svg">
<g clip-path="url(#clip0_4_8)">
<path d="M0.785156 13.417C0.785156 12.754 1.04212 12.1181 1.49953 11.6492C1.95694 11.1804 2.57731 10.917 3.22418 10.917H27.6047C32.6973 10.917 37.1819 13.5837 39.803 17.6303C41.137 15.5647 42.9497 13.8703 45.0791 12.6987C47.2084 11.5271 49.5879 10.915 52.0047 10.917H76.3949C77.0418 10.917 77.6622 11.1804 78.1196 11.6492C78.577 12.1181 78.8339 12.754 78.8339 13.417V63.627C78.8331 63.9565 78.7689 64.2825 78.645 64.5865C78.5211 64.8905 78.34 65.1665 78.1119 65.3987C77.8839 65.6309 77.6134 65.8147 77.316 65.9397C77.0186 66.0647 76.7001 66.1283 76.3787 66.127L51.3965 65.9537C50.1042 65.9443 48.8229 66.1982 47.6271 66.7006C46.4313 67.203 45.3448 67.9439 44.4307 68.8803L41.5364 71.8503C41.3099 72.0827 41.0409 72.2669 40.7449 72.3927C40.4489 72.5184 40.1316 72.5831 39.8112 72.5831C39.4907 72.5831 39.1735 72.5184 38.8774 72.3927C38.5814 72.2669 38.3125 72.0827 38.086 71.8503L35.1526 68.847C34.2473 67.9178 33.1721 67.1807 31.9885 66.6779C30.805 66.1751 29.5363 65.9166 28.2551 65.917H3.22418C2.57731 65.917 1.95694 65.6536 1.49953 65.1848C1.04212 64.7159 0.785156 64.08 0.785156 63.417L0.785156 13.417ZM42.2486 64.1903C44.8606 62.0728 48.0989 60.9312 51.4291 60.9537L73.9559 61.1103V15.917H52.0047C49.4172 15.917 46.9357 16.9706 45.1061 18.8459C43.2764 20.7213 42.2486 23.2648 42.2486 25.917V64.1903ZM37.3608 25.907C37.3582 23.2566 36.3292 20.7156 34.4998 18.8424C32.6705 16.9692 30.1905 15.917 27.6047 15.917H5.66321V60.917H28.2551C31.5656 60.917 34.7787 62.0703 37.3705 64.1837L37.3608 25.907Z" fill="black"/>
</g>
<defs>
<clipPath id="clip0_4_8">
<rect width="78.0488" height="80" fill="white" transform="translate(0.785156 0.916992)"/>
</clipPath>
</defs>
</svg>
