<svg width="81" height="81" viewBox="0 0 81 81" fill="none" xmlns="http://www.w3.org/2000/svg">
<path d="M14.3762 18.737C14.9128 16.5084 16.1837 14.5252 17.9844 13.1067C19.785 11.6882 22.0106 10.9169 24.3029 10.917H57.1629C61.8796 10.917 65.9829 14.1503 67.0896 18.737L73.7296 46.3137C74.1485 48.0537 74.1673 49.8661 73.7846 51.6145C73.4018 53.3628 72.6274 55.0016 71.5197 56.4074C70.412 57.8132 68.9998 58.9494 67.3895 59.7305C65.7792 60.5116 64.0127 60.9173 62.2229 60.917H35.7296V55.917H62.2196C63.253 55.917 64.273 55.6826 65.2028 55.2314C66.1326 54.7802 66.9479 54.124 67.5874 53.3122C68.2269 52.5004 68.674 51.5541 68.8949 50.5445C69.1158 49.5349 69.1049 48.4884 68.8629 47.4837L62.2296 19.907C61.9556 18.7697 61.3069 17.7576 60.3878 17.0338C59.4687 16.31 58.3328 15.9167 57.1629 15.917H24.3062C21.8996 15.917 19.8062 17.567 19.2396 19.907L16.9929 29.2503H13.2296C12.7496 29.2503 12.2796 29.287 11.8196 29.357L14.3762 18.737ZM35.6962 69.2503H58.2362C58.8993 69.2503 59.5352 68.9869 60.004 68.5181C60.4729 68.0493 60.7362 67.4134 60.7362 66.7503C60.7362 66.0873 60.4729 65.4514 60.004 64.9826C59.5352 64.5137 58.8993 64.2503 58.2362 64.2503H35.7362V68.417C35.7362 68.697 35.7196 68.977 35.6962 69.2503ZM19.8962 49.2503C21.0013 49.2503 22.0611 48.8113 22.8425 48.0299C23.6239 47.2485 24.0629 46.1887 24.0629 45.0837C24.0629 43.9786 23.6239 42.9188 22.8425 42.1374C22.0611 41.356 21.0013 40.917 19.8962 40.917C18.7912 40.917 17.7314 41.356 16.95 42.1374C16.1686 42.9188 15.7296 43.9786 15.7296 45.0837C15.7296 46.1887 16.1686 47.2485 16.95 48.0299C17.7314 48.8113 18.7912 49.2503 19.8962 49.2503ZM7.39624 38.417C7.39624 35.197 10.0096 32.5837 13.2296 32.5837H26.5629C27.3292 32.5832 28.0881 32.7338 28.7963 33.0267C29.5044 33.3197 30.1478 33.7493 30.6899 34.291C31.2319 34.8327 31.6619 35.476 31.9552 36.1839C32.2486 36.8919 32.3996 37.6507 32.3996 38.417V68.417C32.3996 69.9641 31.785 71.4478 30.691 72.5418C29.5971 73.6357 28.1133 74.2503 26.5662 74.2503H13.2329C12.4666 74.2508 11.7077 74.1002 10.9996 73.8073C10.2914 73.5143 9.64799 73.0847 9.10596 72.543C8.56393 72.0012 8.13396 71.358 7.8406 70.6501C7.54723 69.9421 7.39624 69.1833 7.39624 68.417V38.417ZM13.2296 37.5837C13.0086 37.5837 12.7966 37.6715 12.6403 37.8277C12.484 37.984 12.3962 38.196 12.3962 38.417V68.417C12.3962 68.877 12.7696 69.2503 13.2296 69.2503H26.5629C26.7839 69.2503 26.9959 69.1625 27.1522 69.0063C27.3084 68.85 27.3962 68.638 27.3962 68.417V38.417C27.3962 38.196 27.3084 37.984 27.1522 37.8277C26.9959 37.6715 26.7839 37.5837 26.5629 37.5837H13.2296Z" fill="black"/>
</svg>
