<svg width="45" height="45" viewBox="0 0 45 45" fill="none" xmlns="http://www.w3.org/2000/svg">
<path d="M22.6454 17.4845C20.0753 17.4845 17.9779 19.5819 17.9779 22.1521C17.9779 24.7223 20.0753 26.8197 22.6454 26.8197C25.2155 26.8197 27.3129 24.7223 27.3129 22.1521C27.3129 19.5819 25.2155 17.4845 22.6454 17.4845ZM36.6444 22.1521C36.6444 20.2192 36.6619 18.3039 36.5534 16.3745C36.4448 14.1335 35.9336 12.1446 34.2949 10.5059C32.6527 8.86363 30.6674 8.3559 28.4264 8.24736C26.4936 8.13881 24.5782 8.15631 22.6489 8.15631C20.7161 8.15631 18.8008 8.13881 16.8714 8.24736C14.6305 8.3559 12.6416 8.86713 11.0029 10.5059C9.36069 12.1481 8.85297 14.1335 8.74442 16.3745C8.63588 18.3074 8.65339 20.2227 8.65339 22.1521C8.65339 24.0815 8.63588 26.0003 8.74442 27.9297C8.85297 30.1707 9.36419 32.1596 11.0029 33.7983C12.6451 35.4406 14.6305 35.9483 16.8714 36.0568C18.8043 36.1654 20.7196 36.1479 22.6489 36.1479C24.5817 36.1479 26.4971 36.1654 28.4264 36.0568C30.6674 35.9483 32.6562 35.4371 34.2949 33.7983C35.9371 32.1561 36.4448 30.1707 36.5534 27.9297C36.6654 26.0003 36.6444 24.085 36.6444 22.1521ZM22.6454 29.3338C18.6712 29.3338 15.4638 26.1264 15.4638 22.1521C15.4638 18.1778 18.6712 14.9704 22.6454 14.9704C26.6196 14.9704 29.827 18.1778 29.827 22.1521C29.827 26.1264 26.6196 29.3338 22.6454 29.3338ZM30.1211 16.3535C29.1932 16.3535 28.4439 15.6042 28.4439 14.6762C28.4439 13.7483 29.1932 12.999 30.1211 12.999C31.049 12.999 31.7983 13.7483 31.7983 14.6762C31.7986 14.8966 31.7554 15.1148 31.6712 15.3184C31.587 15.522 31.4635 15.7071 31.3077 15.8629C31.1519 16.0187 30.9669 16.1422 30.7633 16.2264C30.5597 16.3106 30.3415 16.3538 30.1211 16.3535Z" fill="white"/>
</svg>
