<svg width="24" height="25" viewBox="0 0 24 25" fill="none" xmlns="http://www.w3.org/2000/svg">
<path d="M20.9999 4.52177V19.8747C20.9999 20.2257 20.8604 20.5624 20.6122 20.8106C20.364 21.0588 20.0274 21.1982 19.6763 21.1982H4.32341C3.97239 21.1982 3.63574 21.0588 3.38753 20.8106C3.13932 20.5624 2.99988 20.2257 2.99988 19.8747V4.52177C2.99988 4.17075 3.13932 3.8341 3.38753 3.5859C3.63574 3.33769 3.97239 3.19824 4.32341 3.19824H19.6763C20.0274 3.19824 20.364 3.33769 20.6122 3.5859C20.8604 3.8341 20.9999 4.17075 20.9999 4.52177ZM8.294 10.0806H5.64694V18.5512H8.294V10.0806ZM8.53223 7.16883C8.53363 6.9686 8.49557 6.77006 8.42023 6.58454C8.34489 6.39902 8.23375 6.23015 8.09315 6.08759C7.95255 5.94502 7.78525 5.83155 7.60079 5.75364C7.41634 5.67573 7.21834 5.63492 7.01811 5.63354H6.97047C6.56328 5.63354 6.17277 5.79529 5.88485 6.08321C5.59693 6.37114 5.43517 6.76165 5.43517 7.16883C5.43517 7.57602 5.59693 7.96652 5.88485 8.25445C6.17277 8.54237 6.56328 8.70412 6.97047 8.70412C7.17071 8.70905 7.36996 8.67447 7.55683 8.60237C7.74371 8.53026 7.91454 8.42204 8.05958 8.28389C8.20461 8.14574 8.32101 7.98036 8.40211 7.79721C8.48321 7.61406 8.52742 7.41672 8.53223 7.21648V7.16883ZM18.3528 13.4053C18.3528 10.8588 16.7328 9.86883 15.1234 9.86883C14.5965 9.84244 14.0718 9.95468 13.6018 10.1943C13.1317 10.434 12.7327 10.7927 12.4446 11.2347H12.3705V10.0806H9.88223V18.5512H12.5293V14.0459C12.491 13.5845 12.6364 13.1266 12.9338 12.7717C13.2311 12.4168 13.6565 12.1936 14.1175 12.1506H14.2181C15.0599 12.1506 15.6846 12.68 15.6846 14.0141V18.5512H18.3316L18.3528 13.4053Z" fill="white"/>
</svg>
