<svg width="40" height="41" viewBox="0 0 40 41" fill="none" xmlns="http://www.w3.org/2000/svg">
<path d="M11.0333 18.9775C13.4333 23.6941 17.3 27.5441 22.0167 29.9608L25.6833 26.2941C26.1333 25.8441 26.8 25.6941 27.3833 25.8941C29.25 26.5108 31.2667 26.8441 33.3333 26.8441C34.25 26.8441 35 27.5941 35 28.5108V34.3275C35 35.2441 34.25 35.9941 33.3333 35.9941C17.6833 35.9941 5 23.3108 5 7.66081C5 6.74414 5.75 5.99414 6.66667 5.99414H12.5C13.4167 5.99414 14.1667 6.74414 14.1667 7.66081C14.1667 9.74414 14.5 11.7441 15.1167 13.6108C15.3 14.1941 15.1667 14.8441 14.7 15.3108L11.0333 18.9775Z" fill="white"/>
</svg>
