<svg width="41" height="41" viewBox="0 0 41 41" fill="none" xmlns="http://www.w3.org/2000/svg">
<path d="M20.151 19.3392C19.046 19.3392 17.9862 18.9002 17.2048 18.1188C16.4234 17.3374 15.9844 16.2776 15.9844 15.1725C15.9844 14.0675 16.4234 13.0076 17.2048 12.2262C17.9862 11.4448 19.046 11.0059 20.151 11.0059C21.2561 11.0059 22.3159 11.4448 23.0973 12.2262C23.8787 13.0076 24.3177 14.0675 24.3177 15.1725C24.3177 15.7197 24.2099 16.2615 24.0005 16.767C23.7911 17.2726 23.4842 17.7319 23.0973 18.1188C22.7104 18.5057 22.2511 18.8126 21.7456 19.022C21.24 19.2314 20.6982 19.3392 20.151 19.3392ZM20.151 3.50586C17.0568 3.50586 14.0894 4.73502 11.9015 6.92295C9.71354 9.11087 8.48438 12.0783 8.48438 15.1725C8.48438 23.9225 20.151 36.8392 20.151 36.8392C20.151 36.8392 31.8177 23.9225 31.8177 15.1725C31.8177 12.0783 30.5885 9.11087 28.4006 6.92295C26.2127 4.73502 23.2452 3.50586 20.151 3.50586Z" fill="white"/>
</svg>
