<svg
                        xmlns="http://www.w3.org/2000/svg" width="35" height="35" viewBox="0 0 45 45" fill="none">
                        <path
                            d="M33.9974 24.1393H24.8307V33.306C24.8307 33.7922 24.6376 34.2585 24.2938 34.6024C23.9499 34.9462 23.4836 35.1393 22.9974 35.1393C22.5112 35.1393 22.0449 34.9462 21.701 34.6024C21.3572 34.2585 21.1641 33.7922 21.1641 33.306V24.1393H11.9974C11.5112 24.1393 11.0449 23.9462 10.701 23.6024C10.3572 23.2585 10.1641 22.7922 10.1641 22.306C10.1641 21.8198 10.3572 21.3534 10.701 21.0096C11.0449 20.6658 11.5112 20.4727 11.9974 20.4727H21.1641V11.306C21.1641 10.8198 21.3572 10.3534 21.701 10.0096C22.0449 9.66581 22.5112 9.47266 22.9974 9.47266C23.4836 9.47266 23.9499 9.66581 24.2938 10.0096C24.6376 10.3534 24.8307 10.8198 24.8307 11.306V20.4727H33.9974C34.4836 20.4727 34.9499 20.6658 35.2938 21.0096C35.6376 21.3534 35.8307 21.8198 35.8307 22.306C35.8307 22.7922 35.6376 23.2585 35.2938 23.6024C34.9499 23.9462 34.4836 24.1393 33.9974 24.1393Z"
                            fill="white" />
                    </svg>