<svg width="73" height="74" viewBox="0 0 73 74" fill="none" xmlns="http://www.w3.org/2000/svg">
<path d="M26.9225 15.0505C31.1854 7.40617 33.3152 3.58398 36.5015 3.58398C39.6878 3.58398 41.8176 7.40617 46.0805 15.0505L47.1841 17.0289C48.3954 19.2024 49.001 20.2892 49.9431 21.0059C50.8852 21.7225 52.0628 21.9883 54.418 22.5199L56.5579 23.0044C64.8348 24.8785 68.9699 25.8139 69.9557 28.98C70.9382 32.1427 68.1186 35.4434 62.4762 42.0413L61.016 43.7472C59.4144 45.6213 58.6103 46.56 58.2503 47.7174C57.8902 48.8782 58.0114 50.1298 58.2536 52.6297L58.4757 54.9076C59.3269 63.7127 59.7542 68.1136 57.177 70.0684C54.5997 72.0266 50.7237 70.24 42.9783 66.6736L40.9697 65.7517C38.7692 64.7355 37.669 64.2309 36.5015 64.2309C35.334 64.2309 34.2338 64.7355 32.0299 65.7517L30.028 66.6736C22.2793 70.24 18.4033 72.0233 15.8294 70.0718C13.2488 68.1136 13.6761 63.7127 14.5273 54.9076L14.7494 52.6331C14.9916 50.1298 15.1128 48.8782 14.7494 47.7208C14.3927 46.56 13.5886 45.6213 11.987 43.7505L10.5268 42.0413C4.88438 35.4467 2.06485 32.1461 3.04731 28.98C4.03314 25.8139 8.17159 24.8752 16.4485 23.0044L18.5884 22.5199C20.9402 21.9883 22.1145 21.7225 23.0599 21.0059C24.002 20.2892 24.6076 19.2024 25.8189 17.0289L26.9225 15.0505Z" stroke="black" stroke-width="5.5"/>
</svg>
