<svg width="31" height="35" viewBox="0 0 31 35" fill="none" xmlns="http://www.w3.org/2000/svg">
<path d="M24.4771 5.54807C23.1669 4.05234 22.4449 2.13148 22.4455 0.143066H16.523V23.9097C16.4773 25.1959 15.9343 26.4141 15.0083 27.3079C14.0824 28.2016 12.8457 28.7012 11.5588 28.7014C8.83712 28.7014 6.57546 26.4781 6.57546 23.7181C6.57546 20.4214 9.75712 17.9489 13.0346 18.9647V12.9081C6.42212 12.0264 0.633789 17.1631 0.633789 23.7181C0.633789 30.1006 5.92379 34.6431 11.5396 34.6431C17.558 34.6431 22.4455 29.7556 22.4455 23.7181V11.6622C24.847 13.3869 27.7304 14.3123 30.6871 14.3072V8.38473C30.6871 8.38473 27.0838 8.55723 24.4771 5.54807Z" fill="white"/>
</svg>
