<svg width="17" height="17" viewBox="0 0 17 17" fill="none" xmlns="http://www.w3.org/2000/svg">
<path d="M8.51025 1.69824C4.92057 1.69824 2.01025 4.60855 2.01025 8.19824C2.01025 11.7879 4.92057 14.6982 8.51025 14.6982C12.0999 14.6982 15.0103 11.7879 15.0103 8.19824C15.0103 4.60855 12.0999 1.69824 8.51025 1.69824ZM11.5103 9.19824H8.51025C8.37765 9.19824 8.25047 9.14556 8.1567 9.0518C8.06293 8.95803 8.01025 8.83085 8.01025 8.69824V4.19824C8.01025 4.06563 8.06293 3.93846 8.1567 3.84469C8.25047 3.75092 8.37765 3.69824 8.51025 3.69824C8.64286 3.69824 8.77004 3.75092 8.86381 3.84469C8.95758 3.93846 9.01025 4.06563 9.01025 4.19824V8.19824H11.5103C11.6429 8.19824 11.77 8.25092 11.8638 8.34469C11.9576 8.43846 12.0103 8.56563 12.0103 8.69824C12.0103 8.83085 11.9576 8.95803 11.8638 9.0518C11.77 9.14556 11.6429 9.19824 11.5103 9.19824Z" fill="white"/>
</svg>
