<svg width="81" height="81" viewBox="0 0 81 81" fill="none" xmlns="http://www.w3.org/2000/svg">
<g clip-path="url(#clip0_4_12)">
<path d="M3.1272 78.0596H77.4129M75.6415 22.5167L67.8129 20.0024C67.2866 19.8383 66.7221 19.8438 66.1991 20.0181C65.6761 20.1925 65.2212 20.5268 64.8986 20.9739L59.5272 29.4882L30.0415 14.8024C27.7165 13.439 25.1219 12.5996 22.4389 12.3429C19.7559 12.0863 17.0492 12.4185 14.5079 13.3164C11.9666 14.2142 9.652 15.6562 7.72577 17.5414C5.79954 19.4266 4.30814 21.7096 3.35577 24.231C2.96281 25.5041 3.09112 26.881 3.71252 28.0595C4.33393 29.2381 5.39762 30.1218 6.67005 30.5167L26.0415 36.8024L27.9843 37.431L31.6415 49.9453C31.7526 50.3776 31.9744 50.7736 32.285 51.0942C32.5956 51.4148 32.9843 51.6491 33.4129 51.7739L42.2129 54.631C42.6747 54.8306 43.1825 54.8993 43.6807 54.8296C44.179 54.7599 44.6484 54.5546 45.0378 54.236C45.4272 53.9175 45.7214 53.498 45.8883 53.0234C46.0553 52.5488 46.0885 52.0375 45.9843 51.5453L44.1558 42.631L45.4129 43.031L64.3272 49.1453C64.9384 49.372 65.5886 49.4748 66.2399 49.4478C66.8912 49.4208 67.5306 49.2644 68.1209 48.9879C68.7112 48.7114 69.2406 48.3201 69.6782 47.837C70.1159 47.3539 70.453 46.7886 70.6701 46.1739L77.2986 25.6024C77.4779 24.9736 77.4051 24.2997 77.0957 23.7236C76.7864 23.1475 76.2647 22.7146 75.6415 22.5167Z" stroke="black" stroke-width="5" stroke-linecap="round" stroke-linejoin="round"/>
</g>
<defs>
<clipPath id="clip0_4_12">
<rect width="80" height="80" fill="white" transform="translate(0.27002 0.916992)"/>
</clipPath>
</defs>
</svg>
