<svg width="24" height="25" viewBox="0 0 24 25" fill="none" xmlns="http://www.w3.org/2000/svg">
<path d="M19.9523 8.11798C19.9645 8.29429 19.9645 8.47061 19.9645 8.64855C19.9645 14.0704 15.837 20.3235 8.28954 20.3235V20.3203C6.06 20.3235 3.87678 19.6849 1.99988 18.4808C2.32407 18.5198 2.64989 18.5393 2.97652 18.5401C4.82417 18.5417 6.61901 17.9218 8.0726 16.7802C6.31676 16.7469 4.77705 15.602 4.23916 13.9307C4.85423 14.0493 5.488 14.0249 6.09169 13.86C4.17741 13.4733 2.8002 11.7913 2.8002 9.83807C2.8002 9.82019 2.8002 9.80313 2.8002 9.78607C3.37059 10.1038 4.00922 10.2801 4.66248 10.2996C2.85952 9.09462 2.30376 6.69608 3.39252 4.8208C5.47581 7.38428 8.54954 8.94268 11.8492 9.10762C11.5185 7.68247 11.9702 6.18907 13.0362 5.18725C14.6889 3.63372 17.2881 3.71335 18.8416 5.36519C19.7606 5.184 20.6414 4.8468 21.4474 4.36905C21.1411 5.31887 20.5 6.1257 19.6436 6.63839C20.4569 6.54252 21.2516 6.32476 21.9999 5.99245C21.449 6.81796 20.7551 7.53703 19.9523 8.11798Z" fill="white"/>
</svg>
