<svg width="24" height="25" viewBox="0 0 24 25" fill="none" xmlns="http://www.w3.org/2000/svg">
<path fill-rule="evenodd" clip-rule="evenodd" d="M19.7919 5.61307C20.652 5.84414 21.3324 6.5245 21.5634 7.38457C21.987 8.95068 21.9999 12.1984 21.9999 12.1984C21.9999 12.1984 21.9999 15.459 21.5763 17.0123C21.3452 17.8724 20.6648 18.5527 19.8048 18.7838C18.2515 19.2074 11.9999 19.2074 11.9999 19.2074C11.9999 19.2074 5.74827 19.2074 4.195 18.7838C3.33492 18.5527 2.65456 17.8724 2.4235 17.0123C1.99988 15.4462 1.99988 12.1984 1.99988 12.1984C1.99988 12.1984 1.99988 8.95068 2.41066 7.39741C2.64173 6.53734 3.32209 5.85698 4.18216 5.62591C5.73544 5.20229 11.987 5.18945 11.987 5.18945C11.987 5.18945 18.2386 5.18945 19.7919 5.61307ZM15.1834 12.1984L9.99731 15.2023V9.19459L15.1834 12.1984Z" fill="white"/>
</svg>
