<svg width="112" height="113" viewBox="0 0 112 113" fill="none" xmlns="http://www.w3.org/2000/svg">
<circle cx="55.9644" cy="56.5171" r="53.5757" stroke="#00B235" stroke-width="4"/>
<path d="M45.4454 69.2348L34.0555 57.8448C33.4417 57.2311 32.6093 56.8863 31.7414 56.8863C30.8734 56.8863 30.041 57.2311 29.4273 57.8448C28.8135 58.4586 28.4688 59.291 28.4688 60.1589C28.4688 60.5887 28.5534 61.0143 28.7179 61.4113C28.8823 61.8084 29.1234 62.1691 29.4273 62.473L43.1477 76.1935C44.4279 77.4736 46.4958 77.4736 47.7759 76.1935L82.5038 41.4656C83.1175 40.8519 83.4623 40.0195 83.4623 39.1515C83.4623 38.2836 83.1175 37.4512 82.5038 36.8374C81.8901 36.2237 81.0577 35.8789 80.1897 35.8789C79.3218 35.8789 78.4893 36.2237 77.8756 36.8374L45.4454 69.2348Z" fill="#00B335"/>
</svg>
